<?xml version="1.0" encoding="utf-8"?>
<!-- Generator: Adobe Illustrator 19.2.1, SVG Export Plug-In . SVG Version: 6.00 Build 0)  -->
<svg version="1.1" id="Calque_1" xmlns="http://www.w3.org/2000/svg" xmlns:xlink="http://www.w3.org/1999/xlink" x="0px" y="0px"
	 viewBox="0 0 100 125" style="enable-background:new 0 0 100 125;" xml:space="preserve">
<g>
	<path d="M4.8,85h90l-45-70L4.8,85z M14,80l35.8-55.8L85.7,80H14z"/>
	<polygon points="48.4,65.1 50.5,65.1 51.5,44.2 47.4,44.2 	"/>
	<path d="M49.4,68.3c-1.6,0-2.4,0.9-2.4,2.7c0,0.9,0.2,1.6,0.7,2c0.4,0.4,1,0.6,1.7,0.6c0.8,0,1.3-0.2,1.8-0.7s0.6-1.1,0.6-2
		s-0.2-1.5-0.6-2C50.7,68.6,50.2,68.3,49.4,68.3z"/>
</g>
</svg>
