<?xml version="1.0" encoding="utf-8"?>
<!-- Generator: Adobe Illustrator 19.2.1, SVG Export Plug-In . SVG Version: 6.00 Build 0)  -->
<svg version="1.1" id="Calque_1" xmlns="http://www.w3.org/2000/svg" xmlns:xlink="http://www.w3.org/1999/xlink" x="0px" y="0px"
	 viewBox="0 0 100 125" style="enable-background:new 0 0 100 125;" xml:space="preserve">
<path d="M89.6,23.8H38.5l-4-4.9c-1.9-2.1-4.6-3.4-7.5-3.4H10.2c-4.8,0-8.7,3.9-8.7,8.7v61.7c0,4.8,3.9,8.7,8.7,8.7h79.5
	c4.8,0,8.7-3.9,8.7-8.7V32.4C98.3,27.6,94.4,23.8,89.6,23.8z M6.5,24.2c0-2,1.6-3.7,3.7-3.7H27c1.4,0,2.8,0.6,3.7,1.6l5.4,6.6h53.7
	c2,0,3.7,1.6,3.7,3.7v53.4c0,2-1.6,3.7-3.7,3.7H10.2c-2,0-3.7-1.6-3.7-3.7C6.6,85.9,6.6,24.2,6.5,24.2z"/>
</svg>
