<?xml version="1.0" encoding="utf-8"?>
<!-- Generator: Adobe Illustrator 19.2.1, SVG Export Plug-In . SVG Version: 6.00 Build 0)  -->
<svg version="1.1" id="Calque_1" xmlns="http://www.w3.org/2000/svg" xmlns:xlink="http://www.w3.org/1999/xlink" x="0px" y="0px"
	 viewBox="0 0 100 125" style="enable-background:new 0 0 100 125;" xml:space="preserve">
<g>
	<path d="M91.2,101.3l-19.7-6.1l-1.1-6.6c-0.1-0.5-0.4-0.8-0.9-1l-8-2.5L56.4,75l-1.8-11.3c-0.1-0.7-0.7-1.1-1.4-1L38.3,65l-8-4.2
		l-2.4-13.9c-0.1-0.5-0.4-0.9-0.9-1L8.8,40.6c-0.4-0.1-0.8,0-1.1,0.2c-0.3,0.2-0.5,0.6-0.5,1v60.8c0,0.7,0.6,1.2,1.2,1.2h82.5
		c0,0,0,0,0,0c0.7,0,1.2-0.6,1.2-1.2C92.2,101.9,91.8,101.4,91.2,101.3z M9.7,101.3V43.4L25.6,48l2.4,13.8c0.1,0.4,0.3,0.7,0.7,0.9
		l9,4.7c0.2,0.1,0.5,0.2,0.8,0.1l14.1-2.1L54,75.6c0,0.1,0.1,0.3,0.1,0.4l5.5,10.7c0.2,0.3,0.4,0.5,0.7,0.6l7.7,2.4l1.1,6.6
		c0.1,0.5,0.4,0.8,0.9,1l12.6,3.9L9.7,101.3L9.7,101.3z"/>
	<rect x="19.3" y="77.7" transform="matrix(0.7 -0.7141 0.7141 0.7 -47.8482 44.0367)" width="18.4" height="2.5"/>
	<rect x="28.5" y="80.1" transform="matrix(0.7 -0.7141 0.7141 0.7 -46.8081 51.3613)" width="18.4" height="2.5"/>
	<path d="M78.1,41c4.1,0,7.4-3.3,7.4-7.4c0-4.1-3.3-7.4-7.4-7.4s-7.4,3.3-7.4,7.4C70.7,37.7,74,41,78.1,41z M78.1,28.8
		c2.7,0,4.9,2.2,4.9,4.9s-2.2,4.9-4.9,4.9s-4.9-2.2-4.9-4.9C73.2,31,75.4,28.8,78.1,28.8z"/>
	<rect x="76.8" y="19" width="2.5" height="6"/>
	<rect x="76.8" y="42.5" width="2.5" height="6"/>
	<rect x="86.8" y="32.5" width="6" height="2.5"/>
	<rect x="63.4" y="32.5" width="6" height="2.5"/>
	<rect x="85.1" y="39.1" transform="matrix(0.7071 -0.7071 0.7071 0.7071 -4.4378 73.41)" width="2.5" height="6"/>
	<rect x="68.5" y="22.5" transform="matrix(0.7072 -0.707 0.707 0.7072 2.4322 56.7983)" width="2.5" height="6"/>
	<rect x="66.8" y="40.8" transform="matrix(0.707 -0.7072 0.7072 0.707 -9.2954 61.6816)" width="6" height="2.5"/>
	<rect x="83.4" y="24.2" transform="matrix(0.7071 -0.7071 0.7071 0.7071 7.2997 68.5475)" width="6" height="2.5"/>
	<polygon points="79.1,65.8 82.1,62.8 82.1,74.6 70.6,74.6 73.7,71.5 56,53.8 54.2,55.6 70.1,71.5 64.5,77.1 84.6,77.1 84.6,56.8 
		79.1,62.3 63.3,46.5 61.5,48.3 	"/>
	<polygon points="60.3,46.9 62.1,45.1 41.8,24.9 8.4,24.9 8.4,27.4 40.7,27.4 	"/>
	<polygon points="52.9,54.3 54.7,52.5 38.3,36.1 8.4,36.1 8.4,38.6 37.2,38.6 	"/>
	<rect x="66.4" y="52" transform="matrix(0.7071 -0.7071 0.7071 0.7071 -22.6511 65.439)" width="2.5" height="16.1"/>
	<rect x="38.3" y="43.7" transform="matrix(0.7071 -0.7071 0.7071 0.7071 -24.9946 43.1247)" width="2.5" height="16.1"/>
	<rect x="77.8" y="81.1" transform="matrix(0.7071 -0.7071 0.7071 0.7071 -39.9114 82.0348)" width="2.5" height="16.1"/>
	<rect x="50.8" y="19.5" transform="matrix(0.7071 -0.7071 0.7071 0.7071 -4.2406 44.838)" width="2.5" height="16.1"/>
</g>
</svg>
