<?xml version="1.0" encoding="utf-8"?>
<!-- Generator: Adobe Illustrator 19.2.1, SVG Export Plug-In . SVG Version: 6.00 Build 0)  -->
<svg version="1.1" id="Calque_1" xmlns="http://www.w3.org/2000/svg" xmlns:xlink="http://www.w3.org/1999/xlink" x="0px" y="0px"
	 viewBox="0 0 90 112.5" style="enable-background:new 0 0 90 112.5;" xml:space="preserve">
<path d="M80.4,58l-11.9,3.2l-15.7-9l15.7-9.1l12,3.2c2.3,0.6,4.7-0.7,5.3-3.1l0,0c0.6-2.3-0.7-4.7-3.1-5.3l-9.5-2.6l2.5-9.4
	c0.6-2.3-0.7-4.7-3.1-5.3l0,0c-2.3-0.6-4.7,0.7-5.3,3.1l-3.2,11.9l-15.7,9.1V26.6l8.8-8.8c1.7-1.7,1.7-4.4,0-6.1l0,0
	c-1.7-1.7-4.4-1.7-6.1,0l-7,7l-6.9-6.9c-1.7-1.7-4.4-1.7-6.1,0l0,0c-1.7,1.7-1.7,4.4,0,6.1l8.7,8.7v18.1l-15.7-9l-3.2-12
	c-0.6-2.3-3-3.7-5.3-3.1l0,0c-2.3,0.6-3.7,3-3.1,5.3l2.6,9.5l-9.4,2.5c-2.3,0.6-3.7,3-3.1,5.3l0,0c0.6,2.3,3,3.7,5.3,3.1l11.9-3.1
	l15.7,9l-15.7,9.1l-12-3.2c-2.3-0.6-4.7,0.7-5.3,3.1l0,0c-0.6,2.3,0.7,4.7,3.1,5.3l9.5,2.6l-2.5,9.4c-0.6,2.3,0.7,4.7,3.1,5.3l0,0
	c2.3,0.6,4.7-0.7,5.3-3.1l3.2-11.9l15.7-9.1v18.1l-8.8,8.8c-1.7,1.7-1.7,4.4,0,6.1l0,0c1.7,1.7,4.4,1.7,6.1,0l7-7l6.9,6.9
	c1.7,1.7,4.4,1.7,6.1,0l0,0c1.7-1.7,1.7-4.4,0-6.1l-8.7-8.7V59.7l15.7,9l3.2,12c0.6,2.3,3,3.7,5.3,3.1l0,0c2.3-0.6,3.7-3,3.1-5.3
	L73.2,69l9.4-2.5c2.3-0.6,3.7-3,3.1-5.3l0,0C85,58.8,82.7,57.4,80.4,58z"/>
</svg>
