<?xml version="1.0" encoding="utf-8"?>
<!-- Generator: Adobe Illustrator 19.2.1, SVG Export Plug-In . SVG Version: 6.00 Build 0)  -->
<svg version="1.1" id="Calque_2" xmlns="http://www.w3.org/2000/svg" xmlns:xlink="http://www.w3.org/1999/xlink" x="0px" y="0px"
	 viewBox="0 0 100 99.9" style="enable-background:new 0 0 100 99.9;" xml:space="preserve">
<style type="text/css">
	.st0{fill:none;stroke:#000000;stroke-width:2.3039;stroke-miterlimit:10;}
</style>
<g>
	<path class="st0" d="M61.1,25.3c2.1-5.4,7.2-9.2,13.3-9.2c7.8,0,14.2,6.3,14.2,14.2s-6.3,14.2-14.2,14.2c-4.1,0-7.8-1.8-10.4-4.6"
		/>
	<path class="st0" d="M72.6,73.2h23.7c0,0,4.1-28.7-21.8-28.7c-7.2,0-12.4,3-15.6,6.2"/>
</g>
<g>
	<path class="st0" d="M36.5,39.3c-2.5,2.7-6.8,5-10.8,5c-7.8,0-14.2-6.3-14.2-14.2s6.4-14.1,14.2-14.1c6.2,0,11.6,4.1,13.5,9.7"/>
	<path class="st0" d="M41.9,50.7c-3.2-4-8-6.2-16.2-6.2c-25.9,0-21.5,28.7-21.5,28.7h23.7"/>
	<path class="st0" d="M27.9,73.1h0.4"/>
</g>
<g>
	<circle class="st0" cx="50.2" cy="35.2" r="14.2"/>
	<path class="st0" d="M41.9,50.7C25.3,56,28.7,78.1,28.7,78.1H72c0,0,4.1-28.7-21.8-28.7C46.9,49.5,44.3,49.8,41.9,50.7"/>
</g>
</svg>
