<?xml version="1.0" encoding="utf-8"?>
<!-- Generator: Adobe Illustrator 19.2.1, SVG Export Plug-In . SVG Version: 6.00 Build 0)  -->
<svg version="1.1" id="Calque_1" xmlns="http://www.w3.org/2000/svg" xmlns:xlink="http://www.w3.org/1999/xlink" x="0px" y="0px"
	 viewBox="0 0 96 120" style="enable-background:new 0 0 96 120;" xml:space="preserve">
<title>Baer_filled</title>
<desc>Created with Sketch.</desc>
<g>
	<g>
		<path d="M26,54.2l5,4l5,4l-1,6l-10,7H15l4-3l7-12V54.2z M51,62.2l5,1l11,5l-3,6h-9l3-2L51,62.2z M9,45.4l5-3l1-3l9-7v3h8l7-3l9,2
			c9.3-2,15.7-2.7,19-2c3.3,0.7,6.7,4,10,9.9l11,32.8H77c2.4-1.8,3.4-2.8,3-3c-0.7-0.3-8.7-3.8-16-8c-5.1-2.9-10.5-4.6-16-5v9.9
			l-1,6H37l3-3v-7l-2-4l-12-9.9l-8-1l-7-2L9,45.4z"/>
	</g>
</g>
</svg>
