<?xml version="1.0" encoding="utf-8"?>
<!-- Generator: Adobe Illustrator 19.2.1, SVG Export Plug-In . SVG Version: 6.00 Build 0)  -->
<svg version="1.1" id="Calque_1" xmlns="http://www.w3.org/2000/svg" xmlns:xlink="http://www.w3.org/1999/xlink" x="0px" y="0px"
	 viewBox="0 0 100 125" style="enable-background:new 0 0 100 125;" xml:space="preserve">
<title>Artboard 100</title>
<path d="M68,11.3c-1.6,0-3.1,0.6-4.2,1.8l-51,51c-0.7,0.7-1.3,1.7-1.6,2.7l-9,33c-0.9,3.2,1,6.5,4.2,7.4c1,0.3,2.1,0.3,3.2,0l33-9
	c1-0.3,1.9-0.8,2.7-1.6l51-51c1.1-1.1,1.8-2.6,1.8-4.2C98,24.7,84.6,11.3,68,11.3z M25,90.4c-1.2-2.7-3.4-4.9-6.1-6.2l3.5-12.9
	c8.1,1.1,14.4,7.4,15.5,15.5L25,90.4z M47.5,77.3c-3-6.9-8.6-12.5-15.5-15.5l38.3-38.4c8.1,1.1,14.5,7.4,15.5,15.5L47.5,77.3z"/>
</svg>
