<?xml version="1.0" encoding="utf-8"?>
<!-- Generator: Adobe Illustrator 19.2.1, SVG Export Plug-In . SVG Version: 6.00 Build 0)  -->
<svg version="1.1" id="Calque_1" xmlns="http://www.w3.org/2000/svg" xmlns:xlink="http://www.w3.org/1999/xlink" x="0px" y="0px"
	 viewBox="0 0 100 125" style="enable-background:new 0 0 100 125;" xml:space="preserve">
<path d="M73.6,20H26.4l-5,15H5v50h90V35H78.6L73.6,20z M85,75H15V45h13.6l5-15h32.8l5,15H85V75z"/>
<path d="M50,40c-8.3,0-15,6.7-15,15s6.7,15,15,15s15-6.7,15-15S58.3,40,50,40z M50,60c-2.8,0-5-2.2-5-5s2.2-5,5-5s5,2.2,5,5
	S52.8,60,50,60z"/>
</svg>
