<?xml version="1.0" encoding="utf-8"?>
<!-- Generator: Adobe Illustrator 19.2.1, SVG Export Plug-In . SVG Version: 6.00 Build 0)  -->
<svg version="1.1" id="Calque_1" xmlns="http://www.w3.org/2000/svg" xmlns:xlink="http://www.w3.org/1999/xlink" x="0px" y="0px"
	 viewBox="0 0 100 125" style="enable-background:new 0 0 100 125;" xml:space="preserve">
<g>
	<path d="M43.9,42.3l-10.3-5.8v45.3L44,76l19-10.8l10.3-6l-10.3-6L43.9,42.3z"/>
	<path d="M86.2,23.2H13.8c-6.1,0-11,4.9-11,11v50c0,6.1,4.9,11,11,11h72.3c6.1,0,11-4.9,11-11v-50C97.2,28.1,92.2,23.2,86.2,23.2z
		 M93.2,84.2c0,3.9-3.1,7-7,7H13.8c-3.9,0-7-3.1-7-7v-50c0-3.9,3.1-7,7-7h72.3c3.9,0,7,3.1,7,7L93.2,84.2L93.2,84.2z"/>
</g>
</svg>
