<?xml version="1.0" encoding="utf-8"?>
<!-- Generator: Adobe Illustrator 19.2.1, SVG Export Plug-In . SVG Version: 6.00 Build 0)  -->
<svg version="1.1"
	 id="Calque_1" xmlns:cc="http://creativecommons.org/ns#" xmlns:dc="http://purl.org/dc/elements/1.1/" xmlns:inkscape="http://www.inkscape.org/namespaces/inkscape" xmlns:rdf="http://www.w3.org/1999/02/22-rdf-syntax-ns#" xmlns:sodipodi="http://sodipodi.sourceforge.net/DTD/sodipodi-0.dtd" xmlns:svg="http://www.w3.org/2000/svg"
	 xmlns="http://www.w3.org/2000/svg" xmlns:xlink="http://www.w3.org/1999/xlink" x="0px" y="0px" viewBox="0 0 100 125"
	 style="enable-background:new 0 0 100 125;" xml:space="preserve">
<g transform="translate(0,-952.36218)">
	<path d="M50,968.4c-24.3,0-44,19.7-44,44s19.7,44,44,44s44-19.7,44-44S74.3,968.4,50,968.4z M50,972.4c22.1,0,40,17.9,40,40
		c0,10.8-4.2,20.5-11.2,27.7c-3.6-12.6-15.1-21.7-28.8-21.7s-25.3,9.2-28.8,21.7c-6.9-7.2-11.2-16.9-11.2-27.7
		C10,990.2,27.9,972.4,50,972.4z M50,977.4c-9,0-16,8.2-16,18s7,18,16,18s16-8.2,16-18C66,985.6,59,977.4,50,977.4z M50,981.4
		c6.5,0,12,6.1,12,14s-5.5,14-12,14s-12-6.1-12-14S43.5,981.4,50,981.4z M50,1022.4c12.7,0,23.1,8.9,25.5,20.8
		c-6.9,5.7-15.8,9.2-25.5,9.2s-18.6-3.4-25.5-9.2C26.9,1031.3,37.3,1022.4,50,1022.4L50,1022.4z"/>
</g>
</svg>
