<?xml version="1.0" encoding="utf-8"?>
<!-- Generator: Adobe Illustrator 19.2.1, SVG Export Plug-In . SVG Version: 6.00 Build 0)  -->
<svg version="1.1" id="Calque_1" xmlns="http://www.w3.org/2000/svg" xmlns:xlink="http://www.w3.org/1999/xlink" x="0px" y="0px"
	 viewBox="0 0 100 125" style="enable-background:new 0 0 100 125;" xml:space="preserve">
<title>133all</title>
<path d="M33.1,86.6c0-15.6,0-31.2,0-46.8c0.6-0.7,1.8,0.8,2.5,0.9c7.1,4.2,13.4,11.2,13.8,19.9c0.5,6.8-1.6,13.4-3.9,19.7
	c7.7-9.5,10.2-23.4,4.8-34.7C47.6,39.1,41.5,35,38,29c-2.6-4-4.4-8.6-5.1-13.4c-0.5-1-1.7-1.1-2.7-1.1h-0.1c-3.1,0-2.6,2-2.6,4.1v59
	c0,0-1.6-0.2-2.8-0.2c-9-0.5-18.7,6-19.6,15.4c-1.1,7.5,6.8,13.6,13.8,12.5C27.7,104.4,34.3,95.4,33.1,86.6z"/>
<path d="M93,21.8H41.2c-1.1,0-2,0.9-2,2c0,1.1,0.9,2,2,2H93c1.1,0,2-0.9,2-2C95,22.7,94.1,21.8,93,21.8z"/>
<path d="M93,39H54.2c-1.1,0-2,0.9-2,2c0,1.1,0.9,2,2,2H93c1.1,0,2-0.9,2-2C95,39.9,94.1,39,93,39z"/>
<path d="M93,56.1H59.2c-1.1,0-2,0.9-2,2s0.9,2,2,2H93c1.1,0,2-0.9,2-2S94.1,56.1,93,56.1z"/>
<path d="M93,70H59.2c-1.1,0-2,0.9-2,2s0.9,2,2,2H93c1.1,0,2-0.9,2-2S94.1,70,93,70z"/>
</svg>
