<?xml version="1.0" encoding="utf-8"?>
<!-- Generator: Adobe Illustrator 19.2.1, SVG Export Plug-In . SVG Version: 6.00 Build 0)  -->
<svg version="1.1"
	 id="Calque_1" xmlns:cc="http://creativecommons.org/ns#" xmlns:dc="http://purl.org/dc/elements/1.1/" xmlns:inkscape="http://www.inkscape.org/namespaces/inkscape" xmlns:rdf="http://www.w3.org/1999/02/22-rdf-syntax-ns#" xmlns:sodipodi="http://sodipodi.sourceforge.net/DTD/sodipodi-0.dtd" xmlns:svg="http://www.w3.org/2000/svg"
	 xmlns="http://www.w3.org/2000/svg" xmlns:xlink="http://www.w3.org/1999/xlink" x="0px" y="0px" viewBox="0 0 100 125"
	 style="enable-background:new 0 0 100 125;" xml:space="preserve">
<g transform="translate(0,-952.36218)">
	<path d="M52,970.9c-24.3,0-44,19.7-44,44s19.7,44,44,44s44-19.7,44-44C96,990.6,76.3,970.9,52,970.9z M50,975v20.8H34.4
		c1-3.6,2.2-6.9,3.7-9.8C41.4,979.8,45.5,975.9,50,975z M54,975c4.5,0.9,8.6,4.7,11.9,11c1.5,2.8,2.7,6.1,3.7,9.8H54V975z
		 M39.8,976.8c-2,2.1-3.7,4.6-5.2,7.5c-1.8,3.4-3.2,7.3-4.3,11.6H16.8C21.6,986.9,29.9,979.9,39.8,976.8z M64.2,976.8
		c9.9,3.2,18.1,10.1,23,19.1H73.8c-1.1-4.3-2.5-8.2-4.3-11.6C67.9,981.4,66.2,978.8,64.2,976.8z M14.9,999.9h14.5
		c-0.8,4.1-1.2,8.5-1.3,13h-16C12.3,1008.3,13.3,1003.9,14.9,999.9z M33.5,999.9H50v13H32C32.1,1008.3,32.6,1003.9,33.5,999.9z
		 M54,999.9h16.5c0.8,4,1.3,8.4,1.4,13H54V999.9z M74.6,999.9h14.5c1.6,4,2.6,8.4,2.8,13H76C75.9,1008.3,75.4,1004,74.6,999.9z
		 M12.1,1016.9h16c0.1,4.5,0.6,8.9,1.3,13H14.9C13.3,1025.8,12.3,1021.4,12.1,1016.9z M32,1016.9h18v13H33.5
		C32.6,1025.8,32.1,1021.5,32,1016.9z M54,1016.9h18c-0.1,4.6-0.6,9-1.4,13H54V1016.9z M76,1016.9h16c-0.2,4.6-1.2,9-2.8,13H74.6
		C75.4,1025.8,75.9,1021.4,76,1016.9z M16.8,1033.9h13.5c1.1,4.3,2.5,8.2,4.3,11.6c1.5,2.9,3.3,5.4,5.2,7.5
		C29.9,1049.8,21.6,1042.9,16.8,1033.9L16.8,1033.9z M34.4,1033.9H50v20.8c-4.5-0.9-8.6-4.8-11.9-11.1
		C36.7,1040.8,35.4,1037.5,34.4,1033.9z M54,1033.9h15.6c-1,3.6-2.2,6.9-3.7,9.8c-3.3,6.3-7.4,10.2-11.9,11.1V1033.9z M73.7,1033.9
		h13.5c-4.9,9-13.1,15.9-23,19.1c2-2.1,3.7-4.6,5.2-7.5C71.2,1042.1,72.6,1038.1,73.7,1033.9L73.7,1033.9z"/>
</g>
</svg>
